<svg width="1024" height="1024" viewBox="0 0 1024 1024" fill="none" xmlns="http://www.w3.org/2000/svg">
<g clip-path="url(#clip0_1_2)">
<path d="M832 0H192C85.9613 0 0 85.9613 0 192V832C0 938.039 85.9613 1024 192 1024H832C938.039 1024 1024 938.039 1024 832V192C1024 85.9613 938.039 0 832 0Z" fill="url(#paint0_linear_1_2)"/>
<path d="M848 160H176C149.49 160 128 181.49 128 208V816C128 842.51 149.49 864 176 864H848C874.51 864 896 842.51 896 816V208C896 181.49 874.51 160 848 160Z" fill="white"/>
<path opacity="0.9" d="M216 220C216 213.373 210.627 208 204 208C197.373 208 192 213.373 192 220V516C192 522.627 197.373 528 204 528C210.627 528 216 522.627 216 516V220Z" fill="#1F2937"/>
<path opacity="0.95" d="M382 208H202C196.477 208 192 212.477 192 218C192 223.523 196.477 228 202 228H382C387.523 228 392 223.523 392 218C392 212.477 387.523 208 382 208Z" fill="#1F2937"/>
<path d="M378 231C378 229.343 376.657 228 375 228C373.343 228 372 229.343 372 231V267C372 268.657 373.343 270 375 270C376.657 270 378 268.657 378 267V231Z" fill="#F59E0B"/>
<path d="M375 334C397.091 334 415 316.091 415 294C415 271.909 397.091 254 375 254C352.909 254 335 271.909 335 294C335 316.091 352.909 334 375 334Z" fill="#FFF7ED" stroke="#F59E0B" stroke-width="8"/>
<path d="M375 334V418Z" fill="black"/>
<path d="M375 334V418" stroke="#111827" stroke-width="8" stroke-linecap="round"/>
<path d="M375 358L337 398Z" fill="black"/>
<path d="M375 358L337 398" stroke="#111827" stroke-width="8" stroke-linecap="round"/>
<path d="M375 358L413 398Z" fill="black"/>
<path d="M375 358L413 398" stroke="#111827" stroke-width="8" stroke-linecap="round"/>
<path d="M803.278 451H318.722C305.069 451 294 457.716 294 466V601C294 609.284 305.069 616 318.722 616H803.278C816.932 616 828 609.284 828 601V466C828 457.716 816.932 451 803.278 451Z" fill="#F8FAFC" stroke="#E6EEF8" stroke-width="2"/>
<path d="M322 545H370" stroke="#93C5FD" stroke-width="8" stroke-linecap="round"/>
<path d="M394 545H442" stroke="#93C5FD" stroke-width="8" stroke-linecap="round"/>
<path d="M466 545H514" stroke="#93C5FD" stroke-width="8" stroke-linecap="round"/>
<path d="M538 545H586" stroke="#93C5FD" stroke-width="8" stroke-linecap="round"/>
<path d="M610 545H658" stroke="#93C5FD" stroke-width="8" stroke-linecap="round"/>
<path d="M682 545H730" stroke="#93C5FD" stroke-width="8" stroke-linecap="round"/>
<path d="M754 545H802" stroke="#93C5FD" stroke-width="8" stroke-linecap="round"/>
<path d="M346.916 529H339.007L356.854 494.091H366.365L372.604 529H364.695L360.45 502.068H360.178L346.916 529ZM348.723 515.278H367.405L366.416 521.04H347.734L348.723 515.278Z" fill="#0F172A"/>
<path d="M526.721 530L531.068 503.818H541.397C543.375 503.818 545.002 504.168 546.281 504.866C547.568 505.565 548.471 506.558 548.991 507.845C549.52 509.124 549.643 510.632 549.362 512.371C549.072 514.109 548.446 515.601 547.483 516.845C546.528 518.089 545.284 519.048 543.75 519.722C542.224 520.386 540.456 520.719 538.444 520.719H531.528L532.295 516.27H538.304C539.36 516.27 540.264 516.125 541.014 515.835C541.764 515.545 542.356 515.111 542.791 514.531C543.234 513.952 543.524 513.232 543.66 512.371C543.805 511.493 543.754 510.76 543.507 510.172C543.26 509.575 542.812 509.124 542.164 508.817C541.517 508.501 540.664 508.344 539.608 508.344H535.875L532.257 530H526.721ZM542.829 518.085L547.368 530H541.257L536.859 518.085H542.829Z" fill="#94A3B8"/>
<path d="M504 565H420C410.059 565 402 573.059 402 583C402 592.941 410.059 601 420 601H504C513.941 601 522 592.941 522 583C522 573.059 513.941 565 504 565Z" fill="#EEF2FF"/>
<path d="M427.191 575.909L431.077 586.929H431.23L435.117 575.909H436.779L431.972 589H430.335L425.529 575.909H427.191ZM440.403 575.909V589H438.818V575.909H440.403ZM447.621 589H443.581V575.909H447.8C449.07 575.909 450.157 576.171 451.06 576.695C451.963 577.215 452.656 577.963 453.137 578.939C453.619 579.911 453.86 581.074 453.86 582.429C453.86 583.793 453.617 584.967 453.131 585.951C452.645 586.931 451.938 587.685 451.009 588.214C450.08 588.738 448.951 589 447.621 589ZM445.167 587.594H447.519C448.601 587.594 449.498 587.385 450.21 586.967C450.922 586.55 451.452 585.955 451.801 585.184C452.151 584.413 452.326 583.494 452.326 582.429C452.326 581.372 452.153 580.462 451.808 579.7C451.463 578.933 450.947 578.344 450.261 577.935C449.575 577.522 448.721 577.315 447.698 577.315H445.167V587.594ZM456.441 589H454.779L459.585 575.909H461.222L466.029 589H464.367L460.455 577.98H460.352L456.441 589ZM457.054 583.886H463.753V585.293H457.054V583.886ZM475.227 579.182C475.15 578.534 474.839 578.031 474.294 577.673C473.748 577.315 473.079 577.136 472.286 577.136C471.707 577.136 471.2 577.23 470.765 577.418C470.335 577.605 469.998 577.863 469.755 578.191C469.517 578.519 469.397 578.892 469.397 579.31C469.397 579.659 469.48 579.96 469.646 580.211C469.817 580.458 470.034 580.665 470.298 580.831C470.563 580.993 470.84 581.127 471.129 581.234C471.419 581.336 471.686 581.419 471.928 581.483L473.258 581.841C473.599 581.93 473.978 582.054 474.396 582.212C474.818 582.369 475.22 582.585 475.604 582.857C475.992 583.126 476.311 583.471 476.563 583.893C476.814 584.315 476.94 584.832 476.94 585.446C476.94 586.153 476.754 586.793 476.384 587.364C476.017 587.935 475.48 588.388 474.773 588.725C474.07 589.062 473.215 589.23 472.21 589.23C471.272 589.23 470.46 589.079 469.774 588.776C469.093 588.474 468.556 588.052 468.164 587.511C467.776 586.969 467.556 586.341 467.505 585.625H469.142C469.184 586.119 469.35 586.528 469.64 586.852C469.934 587.172 470.305 587.411 470.752 587.568C471.204 587.722 471.69 587.798 472.21 587.798C472.815 587.798 473.358 587.7 473.84 587.504C474.321 587.304 474.703 587.027 474.984 586.673C475.265 586.315 475.406 585.898 475.406 585.42C475.406 584.986 475.284 584.632 475.041 584.359C474.798 584.087 474.479 583.865 474.083 583.695C473.686 583.524 473.258 583.375 472.798 583.247L471.187 582.787C470.164 582.493 469.355 582.073 468.758 581.528C468.161 580.982 467.863 580.268 467.863 579.386C467.863 578.653 468.061 578.014 468.458 577.469C468.858 576.919 469.395 576.493 470.068 576.19C470.746 575.884 471.502 575.73 472.338 575.73C473.181 575.73 473.931 575.881 474.588 576.184C475.244 576.482 475.764 576.891 476.147 577.411C476.535 577.931 476.74 578.521 476.761 579.182H475.227ZM480.441 587.325C480.126 587.325 479.855 587.212 479.629 586.987C479.403 586.761 479.29 586.49 479.29 586.175C479.29 585.859 479.403 585.589 479.629 585.363C479.855 585.137 480.126 585.024 480.441 585.024C480.756 585.024 481.027 585.137 481.253 585.363C481.479 585.589 481.592 585.859 481.592 586.175C481.592 586.384 481.538 586.575 481.432 586.75C481.33 586.925 481.191 587.065 481.016 587.172C480.846 587.274 480.654 587.325 480.441 587.325ZM480.441 580.703C480.126 580.703 479.855 580.59 479.629 580.364C479.403 580.138 479.29 579.868 479.29 579.553C479.29 579.237 479.403 578.967 479.629 578.741C479.855 578.515 480.126 578.402 480.441 578.402C480.756 578.402 481.027 578.515 481.253 578.741C481.479 578.967 481.592 579.237 481.592 579.553C481.592 579.761 481.538 579.953 481.432 580.128C481.33 580.303 481.191 580.443 481.016 580.55C480.846 580.652 480.654 580.703 480.441 580.703ZM493.426 589.179C492.676 589.179 492.001 589.03 491.4 588.732C490.799 588.433 490.318 588.024 489.956 587.504C489.593 586.984 489.395 586.392 489.361 585.727H490.895C490.955 586.32 491.223 586.81 491.701 587.197C492.182 587.581 492.757 587.773 493.426 587.773C493.963 587.773 494.441 587.647 494.858 587.396C495.28 587.144 495.61 586.799 495.849 586.36C496.092 585.917 496.213 585.416 496.213 584.858C496.213 584.287 496.088 583.778 495.836 583.33C495.589 582.879 495.248 582.523 494.814 582.263C494.379 582.003 493.882 581.871 493.324 581.866C492.924 581.862 492.512 581.924 492.091 582.052C491.669 582.175 491.321 582.335 491.049 582.531L489.566 582.352L490.358 575.909H497.159V577.315H491.688L491.228 581.176H491.304C491.573 580.963 491.909 580.786 492.314 580.646C492.719 580.505 493.141 580.435 493.58 580.435C494.381 580.435 495.095 580.626 495.721 581.01C496.352 581.389 496.846 581.909 497.204 582.57C497.566 583.23 497.748 583.984 497.748 584.832C497.748 585.668 497.56 586.413 497.185 587.07C496.814 587.722 496.303 588.237 495.651 588.616C494.999 588.991 494.257 589.179 493.426 589.179Z" fill="#3730A3"/>
<path d="M644 565H560C550.059 565 542 573.059 542 583C542 592.941 550.059 601 560 601H644C653.941 601 662 592.941 662 583C662 573.059 653.941 565 644 565Z" fill="#FEF3C7"/>
<path d="M563.639 589V575.909H571.54V577.315H565.224V581.739H571.13V583.145H565.224V587.594H571.642V589H563.639ZM574.397 589V575.909H578.82C579.843 575.909 580.682 576.084 581.339 576.433C581.995 576.778 582.481 577.254 582.796 577.859C583.111 578.464 583.269 579.152 583.269 579.923C583.269 580.695 583.111 581.379 582.796 581.975C582.481 582.572 581.997 583.04 581.345 583.381C580.693 583.718 579.86 583.886 578.846 583.886H575.266V582.455H578.794C579.493 582.455 580.056 582.352 580.482 582.148C580.912 581.943 581.223 581.653 581.415 581.278C581.611 580.899 581.709 580.447 581.709 579.923C581.709 579.399 581.611 578.941 581.415 578.549C581.219 578.157 580.906 577.854 580.476 577.641C580.045 577.424 579.476 577.315 578.769 577.315H575.982V589H574.397ZM580.559 583.119L583.78 589H581.939L578.769 583.119H580.559ZM585.91 589V575.909H590.334C591.356 575.909 592.196 576.084 592.852 576.433C593.508 576.778 593.994 577.254 594.31 577.859C594.625 578.464 594.783 579.152 594.783 579.923C594.783 580.695 594.625 581.379 594.31 581.975C593.994 582.572 593.511 583.04 592.859 583.381C592.207 583.718 591.373 583.886 590.359 583.886H586.78V582.455H590.308C591.007 582.455 591.57 582.352 591.996 582.148C592.426 581.943 592.737 581.653 592.929 581.278C593.125 580.899 593.223 580.447 593.223 579.923C593.223 579.399 593.125 578.941 592.929 578.549C592.733 578.157 592.42 577.854 591.989 577.641C591.559 577.424 590.99 577.315 590.283 577.315H587.496V589H585.91ZM592.072 583.119L595.294 589H593.453L590.283 583.119H592.072ZM608.47 582.455C608.47 583.835 608.22 585.028 607.722 586.034C607.223 587.04 606.539 587.815 605.67 588.361C604.801 588.906 603.808 589.179 602.691 589.179C601.575 589.179 600.582 588.906 599.712 588.361C598.843 587.815 598.159 587.04 597.661 586.034C597.162 585.028 596.913 583.835 596.913 582.455C596.913 581.074 597.162 579.881 597.661 578.875C598.159 577.869 598.843 577.094 599.712 576.548C600.582 576.003 601.575 575.73 602.691 575.73C603.808 575.73 604.801 576.003 605.67 576.548C606.539 577.094 607.223 577.869 607.722 578.875C608.22 579.881 608.47 581.074 608.47 582.455ZM606.935 582.455C606.935 581.321 606.746 580.364 606.367 579.585C605.992 578.805 605.482 578.214 604.839 577.814C604.2 577.413 603.484 577.213 602.691 577.213C601.899 577.213 601.18 577.413 600.537 577.814C599.898 578.214 599.389 578.805 599.009 579.585C598.634 580.364 598.447 581.321 598.447 582.455C598.447 583.588 598.634 584.545 599.009 585.325C599.389 586.104 599.898 586.695 600.537 587.095C601.18 587.496 601.899 587.696 602.691 587.696C603.484 587.696 604.2 587.496 604.839 587.095C605.482 586.695 605.992 586.104 606.367 585.325C606.746 584.545 606.935 583.588 606.935 582.455ZM618.294 579.182C618.217 578.534 617.906 578.031 617.361 577.673C616.815 577.315 616.146 577.136 615.354 577.136C614.774 577.136 614.267 577.23 613.832 577.418C613.402 577.605 613.065 577.863 612.823 578.191C612.584 578.519 612.465 578.892 612.465 579.31C612.465 579.659 612.548 579.96 612.714 580.211C612.884 580.458 613.102 580.665 613.366 580.831C613.63 580.993 613.907 581.127 614.197 581.234C614.487 581.336 614.753 581.419 614.996 581.483L616.325 581.841C616.666 581.93 617.046 582.054 617.463 582.212C617.885 582.369 618.288 582.585 618.671 582.857C619.059 583.126 619.379 583.471 619.63 583.893C619.881 584.315 620.007 584.832 620.007 585.446C620.007 586.153 619.822 586.793 619.451 587.364C619.085 587.935 618.548 588.388 617.84 588.725C617.137 589.062 616.283 589.23 615.277 589.23C614.34 589.23 613.528 589.079 612.842 588.776C612.16 588.474 611.623 588.052 611.231 587.511C610.843 586.969 610.624 586.341 610.573 585.625H612.209C612.252 586.119 612.418 586.528 612.707 586.852C613.002 587.172 613.372 587.411 613.82 587.568C614.271 587.722 614.757 587.798 615.277 587.798C615.882 587.798 616.426 587.7 616.907 587.504C617.389 587.304 617.77 587.027 618.051 586.673C618.332 586.315 618.473 585.898 618.473 585.42C618.473 584.986 618.352 584.632 618.109 584.359C617.866 584.087 617.546 583.865 617.15 583.695C616.754 583.524 616.325 583.375 615.865 583.247L614.254 582.787C613.232 582.493 612.422 582.073 611.825 581.528C611.229 580.982 610.93 580.268 610.93 579.386C610.93 578.653 611.129 578.014 611.525 577.469C611.926 576.919 612.462 576.493 613.136 576.19C613.813 575.884 614.57 575.73 615.405 575.73C616.249 575.73 616.999 575.881 617.655 576.184C618.311 576.482 618.831 576.891 619.215 577.411C619.602 577.931 619.807 578.521 619.828 579.182H618.294ZM623.508 587.325C623.193 587.325 622.922 587.212 622.697 586.987C622.471 586.761 622.358 586.49 622.358 586.175C622.358 585.859 622.471 585.589 622.697 585.363C622.922 585.137 623.193 585.024 623.508 585.024C623.824 585.024 624.094 585.137 624.32 585.363C624.546 585.589 624.659 585.859 624.659 586.175C624.659 586.384 624.606 586.575 624.499 586.75C624.397 586.925 624.258 587.065 624.084 587.172C623.913 587.274 623.722 587.325 623.508 587.325ZM623.508 580.703C623.193 580.703 622.922 580.59 622.697 580.364C622.471 580.138 622.358 579.868 622.358 579.553C622.358 579.237 622.471 578.967 622.697 578.741C622.922 578.515 623.193 578.402 623.508 578.402C623.824 578.402 624.094 578.515 624.32 578.741C624.546 578.967 624.659 579.237 624.659 579.553C624.659 579.761 624.606 579.953 624.499 580.128C624.397 580.303 624.258 580.443 624.084 580.55C623.913 580.652 623.722 580.703 623.508 580.703ZM632.403 589V587.849L636.724 583.119C637.231 582.565 637.649 582.084 637.977 581.675C638.305 581.261 638.548 580.874 638.706 580.511C638.867 580.145 638.948 579.761 638.948 579.361C638.948 578.901 638.838 578.502 638.616 578.165C638.399 577.829 638.1 577.569 637.721 577.386C637.342 577.202 636.916 577.111 636.443 577.111C635.94 577.111 635.501 577.215 635.126 577.424C634.755 577.629 634.468 577.916 634.263 578.287C634.063 578.658 633.963 579.092 633.963 579.591H632.454C632.454 578.824 632.631 578.151 632.985 577.571C633.338 576.991 633.82 576.54 634.429 576.216C635.043 575.892 635.731 575.73 636.494 575.73C637.261 575.73 637.941 575.892 638.533 576.216C639.125 576.54 639.59 576.977 639.926 577.526C640.263 578.076 640.431 578.688 640.431 579.361C640.431 579.842 640.344 580.313 640.169 580.773C639.999 581.229 639.701 581.739 639.274 582.301C638.853 582.859 638.267 583.541 637.517 584.347L634.576 587.491V587.594H640.661V589H632.403Z" fill="#92400E"/>
<path d="M294 678H254C247.373 678 242 683.373 242 690V730C242 736.627 247.373 742 254 742H294C300.627 742 306 736.627 306 730V690C306 683.373 300.627 678 294 678Z" fill="#EFF6FF" stroke="#BFDBFE"/>
<path d="M264.11 721L268.456 694.818H285.792L285.025 699.382H273.225L272.202 705.621H282.851L282.084 710.185H271.435L269.645 721H264.11Z" fill="#0369A1"/>
<path d="M378 678H338C331.373 678 326 683.373 326 690V730C326 736.627 331.373 742 338 742H378C384.627 742 390 736.627 390 730V690C390 683.373 384.627 678 378 678Z" fill="#FEF3F2" stroke="#FECACA"/>
<path d="M370.741 708.267C370.264 711.062 369.339 713.436 367.967 715.388C366.603 717.339 364.937 718.822 362.968 719.837C361.008 720.851 358.894 721.358 356.627 721.358C354.249 721.358 352.2 720.817 350.478 719.734C348.765 718.652 347.525 717.088 346.758 715.043C345.991 712.989 345.846 710.513 346.323 707.615C346.784 704.811 347.7 702.433 349.072 700.482C350.444 698.521 352.119 697.03 354.096 696.007C356.073 694.976 358.2 694.46 360.475 694.46C362.836 694.46 364.873 695.006 366.586 696.097C368.308 697.188 369.548 698.764 370.306 700.827C371.073 702.881 371.218 705.361 370.741 708.267ZM365.231 707.615C365.529 705.817 365.517 704.308 365.193 703.089C364.877 701.862 364.298 700.933 363.454 700.303C362.61 699.672 361.545 699.357 360.258 699.357C358.86 699.357 357.578 699.706 356.41 700.405C355.251 701.104 354.271 702.118 353.47 703.447C352.677 704.768 352.127 706.375 351.82 708.267C351.514 710.074 351.522 711.582 351.846 712.793C352.178 714.003 352.771 714.919 353.623 715.541C354.484 716.155 355.553 716.462 356.832 716.462C358.221 716.462 359.491 716.121 360.642 715.439C361.801 714.749 362.776 713.747 363.569 712.435C364.362 711.114 364.916 709.507 365.231 707.615Z" fill="#991B1B"/>
<path d="M462 678H422C415.373 678 410 683.373 410 690V730C410 736.627 415.373 742 422 742H462C468.627 742 474 736.627 474 730V690C474 683.373 468.627 678 462 678Z" fill="#ECFCCB" stroke="#D9F99D"/>
<path d="M430.721 721L435.068 694.818H445.397C447.375 694.818 449.002 695.168 450.281 695.866C451.568 696.565 452.471 697.558 452.991 698.845C453.52 700.124 453.643 701.632 453.362 703.371C453.072 705.109 452.446 706.601 451.483 707.845C450.528 709.089 449.284 710.048 447.75 710.722C446.224 711.386 444.456 711.719 442.444 711.719H435.528L436.295 707.27H442.304C443.36 707.27 444.264 707.125 445.014 706.835C445.764 706.545 446.356 706.111 446.791 705.531C447.234 704.952 447.524 704.232 447.66 703.371C447.805 702.493 447.754 701.76 447.507 701.172C447.26 700.575 446.812 700.124 446.164 699.817C445.517 699.501 444.664 699.344 443.608 699.344H439.875L436.257 721H430.721ZM446.829 709.085L451.368 721H445.257L440.859 709.085H446.829Z" fill="#365314"/>
<g filter="url(#filter0_f_1_2)">
<path opacity="0.95" d="M688 748C703.464 748 716 735.464 716 720C716 704.536 703.464 692 688 692C672.536 692 660 704.536 660 720C660 735.464 672.536 748 688 748Z" fill="#3B82F6"/>
<path d="M688 710.2L690.8 718.6H699.2L692.2 722.8L695 731.2L688 725.6L681 731.2L683.8 722.8L676.8 718.6H685.2L688 710.2Z" fill="white"/>
</g>
</g>
<defs>
<filter id="filter0_f_1_2" x="648" y="680" width="80" height="80" filterUnits="userSpaceOnUse" color-interpolation-filters="sRGB">
<feFlood flood-opacity="0" result="BackgroundImageFix"/>
<feBlend mode="normal" in="SourceGraphic" in2="BackgroundImageFix" result="shape"/>
<feGaussianBlur stdDeviation="6" result="effect1_foregroundBlur_1_2"/>
</filter>
<linearGradient id="paint0_linear_1_2" x1="0" y1="0" x2="1024" y2="1024" gradientUnits="userSpaceOnUse">
<stop stop-color="#5EE3A1"/>
<stop offset="1" stop-color="#3BBDF0"/>
</linearGradient>
<clipPath id="clip0_1_2">
<rect width="1024" height="1024" fill="white"/>
</clipPath>
</defs>
</svg>
